<?xml version="1.0" encoding="utf-8"?>
<!-- Uploaded to: SVG Repo, www.svgrepo.com, Generator: SVG Repo Mixer Tools -->
<svg fill="#000000" width="800px" height="800px" viewBox="0 0 32 32" version="1.1" xmlns="http://www.w3.org/2000/svg">
<title>kaleidoscope</title>
<path d="M20.619 16.211c0 2.622-2.126 4.748-4.748 4.748s-4.748-2.126-4.748-4.748c0-2.622 2.126-4.748 4.748-4.748s4.748 2.126 4.748 4.748zM10.385 14.072c0 1.388-1.125 2.513-2.513 2.513s-2.513-1.125-2.513-2.513c0-1.388 1.125-2.513 2.513-2.513s2.513 1.125 2.513 2.513zM4.415 12.709c0 0.9-0.729 1.629-1.629 1.629s-1.629-0.729-1.629-1.629c0-0.9 0.729-1.629 1.629-1.629s1.629 0.729 1.629 1.629zM26.477 18.385c0 1.388-1.125 2.513-2.513 2.513s-2.513-1.125-2.513-2.513c0-1.388 1.125-2.513 2.513-2.513s2.513 1.125 2.513 2.513zM30.671 19.742c0 0.9-0.729 1.629-1.629 1.629s-1.629-0.729-1.629-1.629c0-0.9 0.729-1.629 1.629-1.629s1.629 0.729 1.629 1.629zM16.269 8.177c0 1.388-1.125 2.514-2.514 2.514s-2.514-1.125-2.514-2.514c0-1.388 1.125-2.514 2.514-2.514s2.514 1.125 2.514 2.514zM14.027 3.099c0 0.9-0.729 1.629-1.629 1.629s-1.629-0.729-1.629-1.629c0-0.9 0.729-1.629 1.629-1.629s1.629 0.729 1.629 1.629zM20.582 24.269c0 1.388-1.125 2.514-2.514 2.514s-2.514-1.125-2.514-2.514c0-1.388 1.125-2.514 2.514-2.514s2.514 1.125 2.514 2.514zM21.061 29.355c0 0.9-0.729 1.629-1.629 1.629s-1.629-0.729-1.629-1.629c0-0.9 0.729-1.629 1.629-1.629s1.629 0.729 1.629 1.629zM24.314 10.329c0 1.388-1.125 2.514-2.514 2.514s-2.514-1.125-2.514-2.514c0-1.388 1.125-2.514 2.514-2.514s2.514 1.125 2.514 2.514zM27.158 6.614c0 0.9-0.729 1.629-1.629 1.629s-1.629-0.729-1.629-1.629c0-0.9 0.729-1.629 1.629-1.629s1.629 0.729 1.629 1.629zM12.535 22.108c0 1.388-1.125 2.514-2.514 2.514s-2.514-1.125-2.514-2.514c0-1.388 1.125-2.514 2.514-2.514s2.514 1.125 2.514 2.514zM7.936 25.836c0 0.9-0.729 1.629-1.629 1.629s-1.629-0.729-1.629-1.629c0-0.9 0.729-1.629 1.629-1.629s1.629 0.729 1.629 1.629zM14.716 26.706c0 0.901-0.73 1.632-1.632 1.632s-1.632-0.73-1.632-1.632c0-0.901 0.73-1.632 1.632-1.632s1.632 0.73 1.632 1.632zM20.236 6.105c0 0.901-0.73 1.632-1.632 1.632s-1.632-0.731-1.632-1.632c0-0.901 0.73-1.632 1.632-1.632s1.632 0.731 1.632 1.632zM7.184 19.164c0 0.901-0.731 1.632-1.632 1.632s-1.632-0.731-1.632-1.632c0-0.901 0.731-1.632 1.632-1.632s1.632 0.731 1.632 1.632zM27.785 13.644c0 0.901-0.73 1.632-1.632 1.632s-1.632-0.73-1.632-1.632c0-0.901 0.73-1.632 1.632-1.632s1.632 0.73 1.632 1.632zM9.947 8.869c0 0.901-0.731 1.632-1.632 1.632s-1.632-0.731-1.632-1.632c0-0.901 0.731-1.632 1.632-1.632s1.632 0.731 1.632 1.632zM25.028 23.95c0 0.901-0.731 1.632-1.632 1.632s-1.632-0.731-1.632-1.632c0-0.901 0.731-1.632 1.632-1.632s1.632 0.731 1.632 1.632z"></path>
</svg>